<svg width="105" height="43" viewBox="0 0 105 43" fill="none" xmlns="http://www.w3.org/2000/svg">
<path d="M101 0H4C1.79086 0 0 1.79086 0 3.99999V38.9545C0 41.1637 1.79086 42.9545 4 42.9545H101C103.209 42.9545 105 41.1637 105 38.9545V4C105 1.79086 103.209 0 101 0Z" fill="white"/>
<path d="M25.2111 20.992C26.0911 21.2707 26.7805 21.74 27.2791 22.4C27.7778 23.0453 28.0271 23.8447 28.0271 24.798C28.0271 26.1473 27.4991 27.1887 26.4431 27.922C25.4018 28.6407 23.8765 29 21.8671 29H13.9031V13.6H21.4271C23.3045 13.6 24.7418 13.9593 25.7391 14.678C26.7511 15.3967 27.2571 16.372 27.2571 17.604C27.2571 18.352 27.0738 19.0193 26.7071 19.606C26.3551 20.1927 25.8565 20.6547 25.2111 20.992ZM17.4451 16.284V19.914H20.9871C21.8671 19.914 22.5345 19.76 22.9891 19.452C23.4438 19.144 23.6711 18.6893 23.6711 18.088C23.6711 17.4867 23.4438 17.0393 22.9891 16.746C22.5345 16.438 21.8671 16.284 20.9871 16.284H17.4451ZM21.6031 26.316C22.5418 26.316 23.2458 26.162 23.7151 25.854C24.1991 25.546 24.4411 25.0693 24.4411 24.424C24.4411 23.148 23.4951 22.51 21.6031 22.51H17.4451V26.316H21.6031ZM37.7951 23.544V29H34.2311V23.5L28.2691 13.6H32.0531L36.1671 20.442L40.2811 13.6H43.7791L37.7951 23.544ZM45.1199 13.6H48.6839V26.096H56.4059V29H45.1199V13.6ZM58.3973 13.6H65.3933C67.0653 13.6 68.5393 13.9227 69.8153 14.568C71.106 15.1987 72.1033 16.0933 72.8073 17.252C73.526 18.4107 73.8853 19.76 73.8853 21.3C73.8853 22.84 73.526 24.1893 72.8073 25.348C72.1033 26.5067 71.106 27.4087 69.8153 28.054C68.5393 28.6847 67.0653 29 65.3933 29H58.3973V13.6ZM65.2173 26.074C66.7573 26.074 67.982 25.6487 68.8913 24.798C69.8153 23.9327 70.2773 22.7667 70.2773 21.3C70.2773 19.8333 69.8153 18.6747 68.8913 17.824C67.982 16.9587 66.7573 16.526 65.2173 16.526H61.9613V26.074H65.2173ZM76.5731 13.6H83.5691C85.2411 13.6 86.7151 13.9227 87.9911 14.568C89.2817 15.1987 90.2791 16.0933 90.9831 17.252C91.7017 18.4107 92.0611 19.76 92.0611 21.3C92.0611 22.84 91.7017 24.1893 90.9831 25.348C90.2791 26.5067 89.2817 27.4087 87.9911 28.054C86.7151 28.6847 85.2411 29 83.5691 29H76.5731V13.6ZM83.3931 26.074C84.9331 26.074 86.1577 25.6487 87.0671 24.798C87.9911 23.9327 88.4531 22.7667 88.4531 21.3C88.4531 19.8333 87.9911 18.6747 87.0671 17.824C86.1577 16.9587 84.9331 16.526 83.3931 16.526H80.1371V26.074H83.3931Z" fill="#514072"/>
</svg>
